<mxfile host="Electron" modified="2023-11-20T09:34:57.976Z" agent="Mozilla/5.0 (Windows NT 10.0; Win64; x64) AppleWebKit/537.36 (KHTML, like Gecko) draw.io/22.1.2 Chrome/114.0.5735.289 Electron/25.9.4 Safari/537.36" etag="95045vxicdF_fAM3R6q3" version="22.1.2" type="device">
  <diagram name="Seite-1" id="txTZzpg6tjl1nSJOY_7K">
    <mxGraphModel dx="1095" dy="580" grid="1" gridSize="10" guides="1" tooltips="1" connect="1" arrows="1" fold="1" page="1" pageScale="1" pageWidth="827" pageHeight="1169" math="0" shadow="0">
      <root>
        <mxCell id="0" />
        <mxCell id="1" parent="0" />
        <mxCell id="p3Ys6avA4iNGT8PkMTcQ-15" style="edgeStyle=orthogonalEdgeStyle;rounded=0;orthogonalLoop=1;jettySize=auto;html=1;" edge="1" parent="1" source="p3Ys6avA4iNGT8PkMTcQ-1" target="p3Ys6avA4iNGT8PkMTcQ-4">
          <mxGeometry relative="1" as="geometry" />
        </mxCell>
        <mxCell id="p3Ys6avA4iNGT8PkMTcQ-1" value="Start" style="strokeWidth=1;html=1;shape=mxgraph.flowchart.terminator;whiteSpace=wrap;" vertex="1" parent="1">
          <mxGeometry x="230" y="70" width="80" height="40" as="geometry" />
        </mxCell>
        <mxCell id="p3Ys6avA4iNGT8PkMTcQ-2" value="Ende" style="strokeWidth=1;html=1;shape=mxgraph.flowchart.terminator;whiteSpace=wrap;" vertex="1" parent="1">
          <mxGeometry x="230" y="545" width="80" height="40" as="geometry" />
        </mxCell>
        <mxCell id="p3Ys6avA4iNGT8PkMTcQ-3" value="PAP: a_02_01_02" style="text;html=1;align=center;verticalAlign=middle;resizable=0;points=[];autosize=1;strokeColor=none;fillColor=none;" vertex="1" parent="1">
          <mxGeometry x="20" y="20" width="120" height="30" as="geometry" />
        </mxCell>
        <mxCell id="p3Ys6avA4iNGT8PkMTcQ-16" style="edgeStyle=orthogonalEdgeStyle;rounded=0;orthogonalLoop=1;jettySize=auto;html=1;" edge="1" parent="1" source="p3Ys6avA4iNGT8PkMTcQ-4" target="p3Ys6avA4iNGT8PkMTcQ-5">
          <mxGeometry relative="1" as="geometry" />
        </mxCell>
        <mxCell id="p3Ys6avA4iNGT8PkMTcQ-4" value="int geheimnummer, bestaetigung" style="rounded=0;whiteSpace=wrap;html=1;" vertex="1" parent="1">
          <mxGeometry x="210" y="130" width="120" height="30" as="geometry" />
        </mxCell>
        <mxCell id="p3Ys6avA4iNGT8PkMTcQ-17" style="edgeStyle=orthogonalEdgeStyle;rounded=0;orthogonalLoop=1;jettySize=auto;html=1;" edge="1" parent="1" source="p3Ys6avA4iNGT8PkMTcQ-5" target="p3Ys6avA4iNGT8PkMTcQ-6">
          <mxGeometry relative="1" as="geometry" />
        </mxCell>
        <mxCell id="p3Ys6avA4iNGT8PkMTcQ-5" value="ausgabe(&quot;Geben Sie eine ganzzahlige Geheimnummer ein: &quot;)" style="shape=parallelogram;perimeter=parallelogramPerimeter;whiteSpace=wrap;html=1;fixedSize=1;" vertex="1" parent="1">
          <mxGeometry x="175" y="180" width="190" height="40" as="geometry" />
        </mxCell>
        <mxCell id="p3Ys6avA4iNGT8PkMTcQ-18" style="edgeStyle=orthogonalEdgeStyle;rounded=0;orthogonalLoop=1;jettySize=auto;html=1;" edge="1" parent="1" source="p3Ys6avA4iNGT8PkMTcQ-6" target="p3Ys6avA4iNGT8PkMTcQ-7">
          <mxGeometry relative="1" as="geometry" />
        </mxCell>
        <mxCell id="p3Ys6avA4iNGT8PkMTcQ-6" value="geheimnummer = eingabe()" style="shape=parallelogram;perimeter=parallelogramPerimeter;whiteSpace=wrap;html=1;fixedSize=1;" vertex="1" parent="1">
          <mxGeometry x="210" y="240" width="120" height="30" as="geometry" />
        </mxCell>
        <mxCell id="p3Ys6avA4iNGT8PkMTcQ-19" style="edgeStyle=orthogonalEdgeStyle;rounded=0;orthogonalLoop=1;jettySize=auto;html=1;" edge="1" parent="1" source="p3Ys6avA4iNGT8PkMTcQ-7" target="p3Ys6avA4iNGT8PkMTcQ-8">
          <mxGeometry relative="1" as="geometry" />
        </mxCell>
        <mxCell id="p3Ys6avA4iNGT8PkMTcQ-7" value="ausgabe(&quot;BestÃ¤tigen Sie die Geheimnummer, indem Sie die Zahl erneut eingeben: &quot;)" style="shape=parallelogram;perimeter=parallelogramPerimeter;whiteSpace=wrap;html=1;fixedSize=1;" vertex="1" parent="1">
          <mxGeometry x="175" y="290" width="190" height="40" as="geometry" />
        </mxCell>
        <mxCell id="p3Ys6avA4iNGT8PkMTcQ-20" style="edgeStyle=orthogonalEdgeStyle;rounded=0;orthogonalLoop=1;jettySize=auto;html=1;" edge="1" parent="1" source="p3Ys6avA4iNGT8PkMTcQ-8" target="p3Ys6avA4iNGT8PkMTcQ-9">
          <mxGeometry relative="1" as="geometry" />
        </mxCell>
        <mxCell id="p3Ys6avA4iNGT8PkMTcQ-8" value="bestaetigung = eingabe()" style="shape=parallelogram;perimeter=parallelogramPerimeter;whiteSpace=wrap;html=1;fixedSize=1;" vertex="1" parent="1">
          <mxGeometry x="210" y="350" width="120" height="30" as="geometry" />
        </mxCell>
        <mxCell id="p3Ys6avA4iNGT8PkMTcQ-10" style="edgeStyle=orthogonalEdgeStyle;rounded=0;orthogonalLoop=1;jettySize=auto;html=1;entryX=0;entryY=0.5;entryDx=0;entryDy=0;" edge="1" parent="1" source="p3Ys6avA4iNGT8PkMTcQ-9" target="p3Ys6avA4iNGT8PkMTcQ-5">
          <mxGeometry relative="1" as="geometry">
            <Array as="points">
              <mxPoint x="110" y="425" />
              <mxPoint x="110" y="200" />
            </Array>
          </mxGeometry>
        </mxCell>
        <mxCell id="p3Ys6avA4iNGT8PkMTcQ-11" value="wahr" style="edgeLabel;html=1;align=center;verticalAlign=middle;resizable=0;points=[];" vertex="1" connectable="0" parent="p3Ys6avA4iNGT8PkMTcQ-10">
          <mxGeometry x="0.0496" relative="1" as="geometry">
            <mxPoint x="20" y="-3" as="offset" />
          </mxGeometry>
        </mxCell>
        <mxCell id="p3Ys6avA4iNGT8PkMTcQ-21" style="edgeStyle=orthogonalEdgeStyle;rounded=0;orthogonalLoop=1;jettySize=auto;html=1;entryX=0.5;entryY=0;entryDx=0;entryDy=0;" edge="1" parent="1" source="p3Ys6avA4iNGT8PkMTcQ-9" target="p3Ys6avA4iNGT8PkMTcQ-12">
          <mxGeometry relative="1" as="geometry" />
        </mxCell>
        <mxCell id="p3Ys6avA4iNGT8PkMTcQ-22" value="falsch" style="edgeLabel;html=1;align=center;verticalAlign=middle;resizable=0;points=[];" vertex="1" connectable="0" parent="p3Ys6avA4iNGT8PkMTcQ-21">
          <mxGeometry x="-0.0933" relative="1" as="geometry">
            <mxPoint x="20" as="offset" />
          </mxGeometry>
        </mxCell>
        <mxCell id="p3Ys6avA4iNGT8PkMTcQ-9" value="geheimnummer != bestaetigung" style="rhombus;whiteSpace=wrap;html=1;" vertex="1" parent="1">
          <mxGeometry x="205" y="400" width="130" height="50" as="geometry" />
        </mxCell>
        <mxCell id="p3Ys6avA4iNGT8PkMTcQ-14" style="edgeStyle=orthogonalEdgeStyle;rounded=0;orthogonalLoop=1;jettySize=auto;html=1;" edge="1" parent="1" source="p3Ys6avA4iNGT8PkMTcQ-12" target="p3Ys6avA4iNGT8PkMTcQ-2">
          <mxGeometry relative="1" as="geometry" />
        </mxCell>
        <mxCell id="p3Ys6avA4iNGT8PkMTcQ-12" value="ausgabe(&quot;Das ist Ihre neue Geheimnummer: &quot;, geheimnummer, &quot;.&quot;)" style="shape=parallelogram;perimeter=parallelogramPerimeter;whiteSpace=wrap;html=1;fixedSize=1;" vertex="1" parent="1">
          <mxGeometry x="155" y="495" width="230" height="30" as="geometry" />
        </mxCell>
      </root>
    </mxGraphModel>
  </diagram>
</mxfile>
